<?xml version="1.0" standalone="no"?>
<!DOCTYPE svg PUBLIC "-//W3C//DTD SVG 20010904//EN"
 "http://www.w3.org/TR/2001/REC-SVG-20010904/DTD/svg10.dtd">
<svg version="1.0" xmlns="http://www.w3.org/2000/svg"
 width="2000.000000pt" height="2000.000000pt" viewBox="0 0 2000.000000 2000.000000"
 preserveAspectRatio="xMidYMid meet">

<g transform="translate(0.000000,2000.000000) scale(0.100000,-0.100000)"
fill="#000000" stroke="none">
<path d="M5235 12836 c-60 -28 -118 -86 -140 -140 -21 -50 -33 -176 -16 -176
6 0 11 -9 11 -20 0 -11 7 -38 16 -60 16 -39 15 -41 -14 -112 -16 -40 -36 -98
-43 -128 -20 -82 -18 -270 5 -358 20 -78 29 -90 52 -71 19 15 26 7 48 -54 10
-27 33 -68 52 -93 l34 -44 -36 -33 c-65 -57 -157 -118 -244 -160 -159 -78
-269 -219 -408 -523 -96 -210 -122 -256 -175 -314 -55 -60 -94 -138 -121 -240
-27 -101 -34 -116 -85 -159 -53 -44 -110 -144 -156 -271 -14 -41 -39 -88 -54
-105 -39 -41 -53 -71 -49 -106 3 -27 -2 -33 -47 -57 -70 -38 -86 -71 -88 -182
-2 -91 -2 -92 30 -120 18 -16 49 -32 70 -36 21 -4 51 -17 66 -30 16 -13 37
-24 47 -24 11 0 35 -14 53 -30 19 -17 50 -33 68 -36 19 -4 40 -11 47 -17 6 -5
38 -15 71 -22 74 -15 117 -3 148 44 19 29 23 47 23 117 0 63 5 94 22 131 15
35 21 66 20 114 -1 65 0 67 52 135 29 38 70 85 89 104 20 19 43 52 52 72 12
31 27 44 78 69 68 34 200 161 272 262 22 31 43 56 47 57 12 0 23 -91 22 -175
-1 -60 -8 -97 -28 -150 -15 -38 -36 -95 -48 -125 -29 -77 -29 -192 1 -370 29
-176 32 -321 9 -450 -40 -222 -53 -682 -24 -865 9 -55 16 -138 16 -185 0 -81
-2 -87 -35 -134 -57 -80 -67 -125 -61 -276 3 -73 7 -134 10 -137 3 -3 13 12
23 33 l17 39 4 -47 c4 -56 15 -61 32 -15 l12 32 12 -50 11 -50 14 32 c7 18 19
38 27 44 11 9 14 6 14 -17 0 -50 16 -61 29 -21 11 32 20 39 80 62 80 30 141
79 177 141 19 32 40 51 71 66 53 25 67 48 59 98 -5 32 -1 43 24 75 28 35 30
44 30 117 l0 79 116 129 c155 173 143 173 298 0 l116 -129 0 -79 c0 -73 2 -82
30 -117 25 -32 29 -43 24 -75 -8 -50 6 -73 59 -98 31 -15 52 -34 71 -66 35
-61 97 -111 170 -138 52 -20 64 -29 81 -63 l19 -40 11 44 c8 34 13 41 21 30 7
-8 15 -24 18 -36 11 -35 26 -27 26 11 0 49 16 53 31 9 10 -33 13 -35 20 -18 4
11 8 36 9 55 l2 35 18 -39 c16 -34 19 -36 24 -18 4 12 7 43 6 69 0 26 3 67 8
91 16 72 -9 161 -67 246 -29 41 -31 51 -31 128 0 46 7 128 16 183 30 181 17
641 -24 865 -24 134 -20 298 12 484 36 207 34 249 -14 400 -50 159 -57 224
-36 346 20 111 112 396 136 420 18 18 119 40 178 40 18 0 59 9 92 21 58 20 62
20 105 4 24 -10 55 -15 68 -11 30 7 243 -19 314 -39 28 -8 61 -15 72 -15 12 0
33 -8 47 -17 29 -18 74 -84 74 -107 0 -8 -54 -214 -119 -458 -66 -244 -161
-612 -211 -818 -50 -206 -161 -649 -246 -984 -85 -335 -153 -610 -152 -611 2
-2 44 -14 94 -28 l91 -24 22 96 c189 826 357 1517 426 1756 46 160 126 448
177 640 l94 351 47 43 c25 24 49 52 53 64 3 11 19 31 35 44 17 14 31 39 35 59
4 20 17 46 30 59 13 13 26 36 30 52 4 15 22 45 40 65 52 58 57 115 14 158 -10
10 -26 33 -35 49 -8 17 -30 41 -48 53 l-33 23 112 475 c62 261 113 491 113
511 3 154 -133 322 -344 425 -60 29 -162 69 -225 88 -269 80 -702 163 -763
145 -41 -12 -75 -46 -86 -86 -16 -57 25 -208 83 -307 25 -43 26 -43 93 -50
196 -19 562 -95 780 -162 122 -37 173 -88 173 -174 0 -47 -77 -518 -120 -735
l-10 -50 -51 4 c-47 3 -54 0 -88 -33 -42 -41 -46 -41 -171 17 -154 70 -214 87
-317 87 -90 0 -99 2 -142 30 -104 66 -177 91 -308 105 -142 14 -154 20 -301
149 l-91 79 35 51 c18 28 41 72 50 99 9 28 21 46 28 44 6 -3 18 -8 27 -12 13
-5 19 4 28 37 25 95 31 137 31 228 0 113 -18 202 -59 299 -28 67 -29 73 -16
106 8 19 15 46 15 60 0 14 5 25 11 25 8 0 10 23 7 73 -11 165 -131 278 -283
265 -68 -6 -125 -42 -159 -101 l-26 -44 -54 10 c-47 9 -65 7 -120 -11 -58 -19
-68 -20 -98 -8 -50 21 -118 28 -165 18 -40 -9 -42 -8 -53 18 -16 37 -67 86
-112 104 -54 23 -124 20 -183 -8z m206 -61 c17 -17 39 -47 50 -67 21 -41 39
-48 89 -35 45 12 120 3 165 -21 36 -18 38 -18 77 1 48 24 112 32 158 20 43
-11 80 -6 80 11 0 22 58 95 89 111 40 20 117 19 166 -4 45 -20 91 -69 112
-118 15 -36 17 -83 5 -83 -5 0 -8 -26 -8 -57 1 -43 -5 -67 -21 -93 l-22 -36
23 -64 c35 -97 50 -206 43 -323 -3 -56 -9 -110 -12 -120 -7 -16 -9 -16 -40 3
l-32 20 -7 -31 c-3 -17 -6 -41 -6 -53 0 -11 -11 -44 -24 -73 -19 -40 -29 -50
-43 -47 -13 4 -23 -5 -38 -33 -11 -21 -52 -70 -91 -109 -77 -78 -188 -140
-293 -164 -174 -40 -414 78 -534 263 -22 34 -35 46 -47 42 -23 -7 -60 77 -67
151 -3 30 -8 54 -10 54 -3 0 -18 -9 -35 -21 -16 -12 -31 -19 -33 -17 -3 2 -9
46 -15 97 -14 124 9 303 52 397 10 20 8 31 -11 65 -18 31 -22 52 -19 94 2 41
0 55 -11 55 -19 0 -6 64 24 116 21 36 75 82 115 98 8 3 43 4 77 3 54 -3 67 -7
94 -32z m1595 -121 c57 -9 104 -20 104 -24 0 -4 -7 -51 -15 -106 -8 -54 -15
-128 -15 -163 l0 -63 -72 7 c-40 4 -82 11 -94 15 -35 14 -104 195 -104 273 0
33 40 77 70 77 12 0 68 -7 126 -16z m-1686 -1124 c0 -3 -19 -11 -42 -17 -65
-18 -154 -100 -173 -161 -6 -22 -5 -23 42 -16 67 8 78 -5 69 -94 l-6 -67 27
30 c16 17 42 48 60 70 37 48 48 42 33 -15 -6 -23 -9 -45 -6 -48 3 -3 28 7 55
22 49 26 132 39 148 22 4 -4 -12 -25 -36 -45 -35 -30 -41 -39 -28 -44 9 -3 79
1 157 9 128 14 153 14 282 -1 156 -17 179 -13 132 29 -16 14 -32 26 -36 26 -5
0 -8 6 -8 14 0 32 90 24 152 -14 18 -11 36 -20 41 -20 10 0 9 44 -3 74 -16 42
5 30 57 -31 48 -58 65 -74 70 -69 2 2 -2 27 -8 56 -8 39 -8 59 0 77 11 24 15
25 61 19 45 -6 50 -5 50 12 0 54 -117 156 -192 169 l-38 5 21 29 21 29 30 -21
c16 -12 73 -60 127 -106 130 -115 170 -134 297 -144 115 -9 178 -30 292 -95
77 -44 77 -44 172 -42 88 1 102 -1 190 -37 52 -21 115 -48 140 -60 25 -12 60
-26 78 -30 17 -3 32 -11 32 -16 0 -13 51 15 75 41 30 33 51 41 79 31 18 -8 23
-15 19 -30 -3 -12 -12 -21 -20 -21 -27 0 -63 -32 -63 -56 0 -13 10 -43 21 -68
14 -27 19 -51 15 -62 -4 -11 -9 -43 -11 -73 -5 -70 -15 -79 -59 -51 -45 27
-45 16 -2 -48 36 -53 37 -68 3 -51 -21 12 -21 14 -1 -66 4 -17 4 -18 -6 -3
-18 29 -107 88 -124 82 -8 -3 -44 1 -78 10 -65 16 -226 37 -313 40 -27 2 -64
9 -82 16 -29 13 -39 12 -95 -8 -35 -12 -90 -24 -123 -27 -33 -3 -88 -13 -122
-21 l-62 -16 -31 -79 c-86 -225 -119 -364 -120 -506 0 -92 4 -115 40 -228 45
-143 51 -215 25 -348 -24 -128 -47 -328 -44 -392 2 -42 -2 -67 -13 -85 -11
-18 -17 -57 -21 -140 -2 -68 -11 -139 -21 -173 -23 -76 -16 -112 37 -178 37
-47 42 -59 41 -105 0 -42 -7 -64 -42 -120 -22 -37 -39 -70 -37 -72 2 -3 18 1
35 8 23 10 34 10 42 2 12 -12 13 -9 -52 -197 -21 -59 -35 -125 -41 -195 -15
-144 -15 -145 -46 -166 -35 -23 -117 -23 -195 0 -58 16 -58 17 -58 56 0 26 -8
48 -24 67 -32 39 -36 58 -27 130 l7 62 -58 58 c-33 32 -96 102 -141 156 -45
53 -90 100 -100 103 -37 12 -64 -7 -144 -103 -45 -54 -108 -124 -141 -156
l-59 -58 9 -61 c9 -70 5 -92 -28 -131 -19 -22 -24 -40 -24 -83 l0 -54 -47 -22
c-27 -13 -53 -34 -62 -51 -21 -38 -61 -87 -71 -87 -15 0 -30 62 -30 122 0 32
-7 75 -16 96 l-15 37 -18 -23 c-16 -22 -18 -22 -33 -5 -23 25 -54 145 -67 255
-43 367 -48 480 -27 583 27 128 56 401 56 520 0 78 -7 144 -25 230 -34 164
-33 256 4 378 54 175 70 318 51 471 -12 102 -42 216 -65 249 -16 23 -21 15
-30 -48 -9 -61 -35 -108 -118 -211 -91 -112 -178 -191 -240 -218 -59 -27 -72
-39 -82 -79 -4 -15 -21 -39 -39 -53 -17 -15 -38 -37 -46 -50 -8 -13 -41 -56
-73 -98 -58 -74 -58 -74 -46 -114 10 -34 9 -48 -11 -107 -20 -62 -24 -67 -36
-50 -13 17 -14 16 -23 -8 -18 -46 -33 -44 -26 4 3 24 2 62 -3 84 l-9 40 -16
-37 c-9 -21 -23 -38 -31 -38 -8 0 -33 -17 -56 -38 -42 -41 -52 -81 -30 -123
12 -22 68 -27 88 -7 9 9 12 6 12 -14 0 -58 33 -88 73 -67 20 11 21 11 9 -4
-21 -25 -42 -28 -97 -14 -38 10 -51 18 -53 35 -3 18 -6 20 -27 10 -38 -17 -75
-2 -82 33 -5 27 -9 30 -31 24 -33 -8 -77 11 -90 39 -8 18 -16 21 -44 18 -60
-7 -108 52 -79 97 6 9 5 23 -2 37 -7 17 -7 30 1 46 9 21 11 21 11 4 1 -31 31
-56 65 -56 39 0 71 22 92 62 l16 30 23 -22 24 -22 -30 -26 c-62 -52 -61 -105
2 -124 36 -10 42 -9 61 10 12 11 31 51 44 89 21 62 22 68 6 72 -24 5 -32 20
-32 66 0 56 -22 85 -66 85 -28 0 -38 -6 -53 -31 l-19 -32 -7 47 c-9 56 1 71
51 74 20 2 48 9 63 16 25 14 28 12 59 -24 40 -49 122 -89 193 -95 l54 -5 -57
15 c-73 18 -122 44 -173 88 -37 32 -39 37 -27 57 8 12 17 57 21 100 10 98 34
138 105 179 110 61 171 156 216 334 14 54 29 99 35 100 5 1 16 -17 25 -40 l16
-42 11 84 c13 97 51 190 94 231 26 24 31 26 43 14 8 -8 18 -30 23 -48 5 -18
13 -34 18 -35 10 -2 29 82 55 231 7 41 16 70 21 65 4 -4 9 -39 11 -78 l3 -70
23 115 c27 137 58 247 73 255 16 11 39 -16 66 -75 22 -51 25 -54 38 -36 31 41
26 198 -9 277 -5 12 12 27 74 63 44 25 111 75 148 110 l67 64 23 -21 c12 -11
22 -23 22 -27z m2434 -505 c31 -32 28 -140 -4 -140 -13 0 -40 37 -60 83 -8 20
-6 28 12 48 27 28 32 29 52 9z m166 2 c52 -26 26 -87 -37 -87 -48 0 -83 26
-83 60 0 16 6 31 13 33 23 10 82 7 107 -6z m90 -86 c0 -9 10 -21 23 -26 45
-20 26 -107 -27 -121 -20 -5 -24 -12 -24 -40 0 -40 -22 -69 -59 -79 -20 -5
-22 -9 -13 -20 18 -22 8 -58 -22 -74 -15 -9 -30 -13 -33 -9 -3 3 10 68 29 144
19 77 38 155 42 174 3 19 15 46 25 59 11 13 19 31 19 40 1 22 40 -25 40 -48z
m-153 -82 c25 -9 42 -25 43 -40 0 -13 -38 -49 -52 -49 -17 0 -114 61 -117 75
-6 23 78 33 126 14z m-55 -166 c24 -22 32 -51 18 -68 -29 -35 -111 -4 -162 60
l-22 28 26 -6 c16 -4 30 -3 34 4 9 15 83 3 106 -18z m-77 -105 c49 -16 69 -58
42 -86 -16 -15 -20 -15 -45 -2 -28 16 -72 74 -72 96 0 14 14 13 75 -8z m118
-79 c-6 -6 -7 3 -4 23 4 28 6 29 9 9 2 -13 0 -27 -5 -32z m-81 -33 c14 4 10
-22 -29 -168 -45 -175 -61 -228 -241 -848 -56 -190 -112 -397 -126 -461 -26
-118 -127 -542 -131 -547 -2 -2 -67 18 -73 24 -2 1 10 53 27 116 16 62 81 325
145 583 63 259 137 542 165 630 65 208 103 341 141 495 55 222 46 201 78 184
15 -7 35 -11 44 -8z m-3708 -843 c2 -10 8 -42 11 -70 8 -64 -6 -70 -54 -21
-56 58 -55 108 3 108 24 0 36 -5 40 -17z m-109 -53 c3 -11 11 -20 16 -20 12 0
-19 -61 -40 -77 -24 -18 -80 -16 -88 3 -10 27 10 67 46 91 42 28 58 29 66 3z
m155 -87 c0 -11 -29 -93 -40 -113 -10 -19 -58 -24 -77 -8 -21 17 -15 45 19 78
39 40 98 65 98 43z m131 -168 c-34 -78 -101 -85 -101 -10 0 24 9 41 32 64 18
17 38 29 45 27 7 -3 19 4 26 15 22 36 21 -44 -2 -96z m88 -45 c1 -74 -43 -113
-75 -66 -20 31 -10 64 33 111 25 26 27 27 34 9 4 -10 8 -35 8 -54z m2879 -885
c12 -3 22 -11 22 -17 0 -20 -173 -753 -179 -760 -10 -12 -91 15 -91 30 0 11
106 433 181 725 8 29 14 37 27 33 9 -2 27 -7 40 -11z m-2238 -860 c0 -16 -23
-53 -67 -108 l-23 -29 0 26 c0 13 5 37 11 53 20 54 79 97 79 58z m1642 4 c23
-12 57 -83 58 -118 l0 -24 -23 24 c-38 41 -79 107 -72 118 8 14 11 14 37 0z
m-1592 -30 c0 -16 -47 -96 -70 -119 l-20 -20 0 26 c0 14 7 41 16 60 22 46 74
83 74 53z m1554 -15 c23 -24 46 -78 46 -112 0 -8 -13 -2 -30 15 -16 15 -30 33
-30 39 0 6 -9 23 -21 38 -19 24 -19 46 0 46 5 0 20 -12 35 -26z m-1494 -3 c0
-16 -43 -85 -67 -108 l-23 -22 0 24 c0 33 16 71 40 95 21 21 50 27 50 11z m65
-1 c10 -16 -22 -73 -60 -109 -32 -30 -35 -31 -35 -11 0 31 25 84 51 109 25 23
35 26 44 11z m1302 -12 c30 -34 43 -63 43 -98 l0 -32 -45 53 c-42 50 -54 77
-38 92 11 11 18 8 40 -15z m71 0 c24 -26 42 -69 42 -100 0 -21 -1 -21 -26 3
-26 24 -64 89 -64 109 0 17 26 11 48 -12z"/>
<path d="M6154 12696 c-19 -19 -34 -40 -34 -46 0 -7 10 2 23 21 13 19 38 39
57 46 28 10 30 12 12 12 -14 1 -38 -13 -58 -33z"/>
<path d="M6277 12719 c47 -14 55 -33 10 -25 -41 8 -94 -10 -117 -40 -14 -18
-14 -18 6 -1 44 37 110 11 129 -52 6 -19 4 -23 -7 -18 -11 4 -15 -3 -16 -28
-1 -26 5 -39 25 -55 30 -24 37 -18 48 40 4 26 0 47 -18 83 -23 44 -23 47 -6
47 11 0 19 4 19 9 0 14 -64 51 -86 50 -11 0 -5 -5 13 -10z"/>
<path d="M5232 12698 c-16 -16 -15 -28 3 -28 19 0 19 -3 -5 -42 -22 -36 -26
-82 -10 -123 l10 -27 26 20 c21 15 27 28 28 60 1 31 -2 38 -11 30 -24 -20 -14
28 12 56 39 42 93 33 124 -21 11 -21 41 -10 40 14 0 11 -3 13 -6 6 -8 -20 -18
-16 -57 23 -35 35 -39 36 -91 32 -30 -3 -52 -1 -49 4 8 12 0 10 -14 -4z"/>
<path d="M5400 12706 c0 -2 8 -10 18 -17 15 -13 16 -12 3 4 -13 16 -21 21 -21
13z"/>
<path d="M6120 12623 c0 -1 9 -7 20 -13 15 -8 20 -8 20 3 0 7 -9 13 -20 13
-11 0 -20 -1 -20 -3z"/>
<path d="M5641 12597 c39 -15 109 -56 109 -63 0 -3 -28 -2 -62 1 -50 4 -58 3
-38 -5 33 -15 90 -59 90 -70 0 -5 -15 -7 -32 -4 l-33 6 30 -21 c16 -11 41 -35
55 -53 l25 -33 52 53 c49 52 50 54 23 48 -22 -4 -28 -2 -24 8 5 14 64 58 94
70 8 3 -12 4 -44 1 -53 -5 -58 -4 -46 10 15 18 60 43 100 56 15 5 -2 7 -45 3
-94 -7 -127 -7 -215 0 -71 6 -73 6 -39 -7z"/>
<path d="M5567 12340 c38 -15 55 -54 51 -114 -2 -43 0 -52 10 -44 6 6 12 32
12 58 0 56 -37 110 -73 109 l-22 0 22 -9z"/>
<path d="M5955 12324 c-28 -30 -41 -94 -25 -123 15 -29 21 -26 14 8 -8 40 12
96 43 121 20 15 22 20 9 20 -9 0 -28 -12 -41 -26z"/>
<path d="M5510 12291 c-17 -33 -12 -96 10 -116 58 -52 120 60 68 122 -16 20
-66 16 -78 -6z m55 -26 c0 -28 -29 -25 -33 3 -3 19 0 23 15 20 10 -2 18 -12
18 -23z"/>
<path d="M5976 12288 c-34 -48 -9 -128 39 -128 13 0 31 10 39 22 34 48 9 128
-39 128 -13 0 -31 -10 -39 -22z m59 -8 c8 -13 -14 -42 -26 -34 -5 3 -9 14 -9
25 0 20 24 26 35 9z"/>
<path d="M5421 12234 c-2 -37 10 -79 30 -104 18 -22 19 -22 10 -3 -19 37 -12
38 22 2 17 -20 25 -26 16 -15 -24 31 -49 82 -49 103 0 14 -2 15 -9 4 -7 -11
-10 -9 -14 10 -4 21 -4 21 -6 3z"/>
<path d="M6133 12213 c-7 -3 -13 -10 -13 -17 0 -7 -13 -33 -30 -59 -35 -56
-32 -62 6 -9 19 27 25 31 21 15 -7 -32 0 -29 18 8 18 34 17 68 -2 62z"/>
<path d="M5983 12127 c12 -18 23 -34 25 -36 3 -6 52 41 52 50 0 5 -11 4 -24 0
-16 -7 -32 -5 -49 4 l-27 14 23 -32z"/>
<path d="M5520 12120 c30 -42 34 -43 55 -8 l18 31 -23 -6 c-12 -3 -33 -1 -47
4 l-24 9 21 -30z"/>
<path d="M5675 12136 c-46 -21 -67 -49 -59 -80 8 -35 65 -83 114 -96 l40 -11
0 -74 c0 -73 -1 -75 -25 -75 -14 0 -25 -4 -25 -10 0 -6 27 -10 60 -10 33 0 60
4 60 10 0 6 -11 10 -25 10 -24 0 -25 2 -25 74 l0 73 46 13 c25 7 62 28 81 46
28 26 34 39 31 65 -5 54 -43 74 -151 77 -62 1 -102 -2 -122 -12z"/>
<path d="M6041 11869 c-1 -74 -45 -146 -109 -182 -101 -56 -251 -46 -334 23
-34 28 -51 61 -76 150 l-10 35 -1 -43 c-4 -149 174 -272 337 -232 28 6 71 25
97 41 79 50 132 165 106 229 -9 22 -10 20 -10 -21z"/>
<path d="M5208 11061 c-50 -32 -90 -78 -113 -134 -27 -65 -16 -74 14 -12 35
71 51 90 115 138 57 44 48 49 -16 8z"/>
<path d="M6764 11068 c-22 -66 5 -190 49 -226 7 -7 2 12 -12 41 -21 42 -26 66
-26 129 0 43 -1 78 -2 78 -1 0 -5 -10 -9 -22z"/>
<path d="M5746 11042 c-3 -5 -12 -55 -22 -113 -24 -156 -42 -176 -70 -81 -25
82 -34 85 -34 10 0 -36 -3 -87 -7 -114 l-6 -49 52 48 c29 26 75 55 101 64 45
16 47 18 35 37 -8 12 -19 62 -26 111 -12 95 -14 102 -23 87z"/>
<path d="M7545 10927 c0 -72 -4 -91 -31 -145 -21 -44 -25 -57 -13 -46 36 33
62 102 61 167 0 34 -4 72 -9 84 -5 15 -8 -5 -8 -60z"/>
<path d="M7120 10969 c0 -4 7 -20 15 -35 8 -16 15 -54 16 -84 1 -52 2 -53 11
-23 13 40 3 94 -22 125 -11 13 -19 20 -20 17z"/>
<path d="M6430 10933 c-74 -48 -120 -112 -135 -183 -5 -26 2 -17 29 37 34 67
67 104 126 145 14 9 20 17 15 17 -6 1 -22 -6 -35 -16z"/>
<path d="M5873 10879 c-30 -54 -31 -59 -13 -59 15 0 23 13 36 56 9 30 14 57
12 59 -1 2 -18 -23 -35 -56z"/>
<path d="M5425 10875 c-14 -13 -25 -32 -25 -41 0 -12 6 -9 22 12 13 16 29 34
38 41 11 9 11 12 2 13 -7 0 -24 -11 -37 -25z"/>
<path d="M5936 10849 c-23 -41 -22 -58 5 -59 8 0 32 91 25 97 -2 2 -16 -15
-30 -38z"/>
<path d="M5984 10769 c-3 -6 -1 -16 5 -22 8 -8 11 -5 11 11 0 24 -5 28 -16 11z"/>
<path d="M6430 10482 c0 -4 4 -12 10 -18 5 -5 16 -36 24 -69 l14 -60 1 44 c1
28 -6 56 -20 77 -21 34 -29 41 -29 26z"/>
<path d="M4596 10338 c-3 -13 -6 -52 -6 -88 0 -67 29 -150 62 -177 8 -7 0 15
-16 49 -27 55 -31 72 -31 150 0 48 -1 88 -1 88 -1 0 -4 -10 -8 -22z"/>
<path d="M5345 10250 c3 -5 10 -10 16 -10 5 0 9 5 9 10 0 6 -7 10 -16 10 -8 0
-12 -4 -9 -10z"/>
<path d="M5313 10185 c16 -9 31 -14 35 -11 8 9 0 14 -33 21 l-30 6 28 -16z"/>
<path d="M6265 10190 c-8 -13 5 -13 25 0 13 8 13 10 -2 10 -9 0 -20 -4 -23
-10z"/>
<path d="M5210 10051 c-44 -8 -29 -18 43 -29 53 -8 55 -8 60 15 4 21 1 23 -32
22 -20 -1 -52 -4 -71 -8z"/>
<path d="M6290 10053 c1 -27 20 -35 69 -28 28 4 51 10 51 15 0 4 -21 10 -46
14 -60 8 -74 8 -74 -1z"/>
<path d="M5192 9701 c-10 -6 -8 -10 10 -14 38 -11 58 -8 58 8 0 17 -46 21 -68
6z"/>
<path d="M6340 9695 c0 -16 31 -19 64 -6 18 7 18 8 -5 14 -39 11 -59 8 -59 -8z"/>
<path d="M3882 9384 c10 -10 20 -16 22 -13 3 3 -5 11 -17 18 -21 13 -21 12 -5
-5z"/>
<path d="M5210 9361 c-41 -7 -30 -18 28 -27 38 -6 42 -5 42 15 0 22 -7 23 -70
12z"/>
<path d="M6320 9349 c0 -19 4 -20 43 -14 42 7 54 12 46 19 -2 2 -23 6 -46 10
-39 6 -43 4 -43 -15z"/>
<path d="M3987 9309 c7 -7 15 -10 18 -7 3 3 -2 9 -12 12 -14 6 -15 5 -6 -5z"/>
<path d="M4102 9244 c10 -10 20 -16 22 -13 3 3 -5 11 -17 18 -21 13 -21 12 -5
-5z"/>
<path d="M5281 9166 c2 -2 15 -9 29 -15 24 -11 24 -11 6 3 -16 13 -49 24 -35
12z"/>
<path d="M6285 9160 c-3 -6 1 -7 9 -4 18 7 21 14 7 14 -6 0 -13 -4 -16 -10z"/>
<path d="M5290 9028 c-90 -13 -113 -18 -107 -24 5 -5 207 -43 207 -39 0 6 -31
75 -33 74 -1 -1 -31 -6 -67 -11z"/>
<path d="M6229 9008 c-6 -16 -9 -31 -6 -34 5 -6 87 5 170 22 41 9 29 13 -66
27 l-86 13 -12 -28z"/>
<path d="M5360 8900 c-50 -16 -53 -18 -29 -24 14 -4 44 -6 67 -4 38 3 40 4 29
24 -12 20 -13 20 -67 4z"/>
<path d="M6176 8894 c-9 -24 -9 -24 37 -24 62 0 76 14 29 28 -51 16 -59 15
-66 -4z"/>
<path d="M5204 8803 c5 -50 36 -97 77 -119 28 -14 27 -12 -10 25 -24 24 -46
60 -56 88 l-15 48 4 -42z"/>
<path d="M6365 8791 c-3 -16 -22 -47 -41 -70 -42 -49 -31 -55 14 -8 20 20 35
48 39 70 7 44 -3 50 -12 8z"/>
<path d="M5250 8490 c0 -30 23 -66 53 -81 l22 -12 -22 24 c-12 13 -29 40 -37
59 -14 32 -15 33 -16 10z"/>
<path d="M5960 8491 c0 -23 76 -91 101 -91 21 1 19 3 -13 20 -20 11 -48 34
-62 52 -14 18 -26 27 -26 19z"/>
<path d="M5584 8459 c-16 -17 -42 -37 -59 -45 -23 -10 -25 -13 -10 -14 27 0
81 34 95 60 18 34 6 33 -26 -1z"/>
<path d="M6298 8444 c-24 -38 -25 -43 -8 -34 23 12 43 45 38 64 -2 8 -15 -6
-30 -30z"/>
<path d="M5160 8286 c0 -41 36 -112 70 -136 45 -32 47 -23 6 19 -22 23 -46 62
-57 93 -15 44 -18 48 -19 24z"/>
<path d="M6401 8249 c-7 -24 -31 -59 -57 -85 -37 -38 -40 -42 -15 -30 41 22
79 71 87 112 9 50 0 52 -15 3z"/>
<path d="M8031 10874 c0 -11 3 -14 6 -6 3 7 2 16 -1 19 -3 4 -6 -2 -5 -13z"/>
<path d="M7973 10743 c-10 -34 -10 -36 3 -19 12 17 20 56 11 56 -1 0 -7 -17
-14 -37z"/>
<path d="M7931 10624 c0 -11 3 -14 6 -6 3 7 2 16 -1 19 -3 4 -6 -2 -5 -13z"/>
<path d="M10052 9573 c3 -716 3 -718 25 -759 30 -57 91 -109 152 -129 59 -19
215 -18 264 3 l27 12 0 120 0 121 -30 -16 c-30 -16 -76 -20 -105 -9 -45 17
-45 25 -45 719 l0 655 -145 0 -146 0 3 -717z"/>
<path d="M10650 10140 l0 -150 145 0 145 0 0 150 0 150 -145 0 -145 0 0 -150z"/>
<path d="M8840 10239 c-382 -99 -627 -428 -607 -813 7 -131 25 -203 78 -311
97 -196 275 -346 494 -415 108 -34 322 -40 436 -11 279 70 489 261 582 529 26
74 31 106 34 212 9 237 -53 407 -210 576 -111 119 -243 196 -402 235 -110 26
-301 26 -405 -2z m320 -280 c116 -27 244 -118 311 -222 165 -255 70 -591 -205
-726 -77 -38 -133 -50 -221 -51 -336 0 -584 333 -485 653 50 161 192 296 360
343 56 15 180 17 240 3z"/>
<path d="M15840 10078 c-32 -148 -138 -296 -258 -361 l-52 -28 -51 45 c-80 72
-149 101 -239 101 -88 -1 -138 -22 -200 -87 l-40 -40 0 51 0 51 -140 0 -140 0
0 -560 0 -560 139 0 140 0 3 358 3 357 27 52 c34 64 76 95 138 101 55 5 85 -8
152 -68 l48 -41 53 83 c29 46 63 99 75 118 l22 35 0 -67 0 -68 74 0 75 0 3
-322 c3 -303 5 -326 25 -376 32 -79 69 -121 132 -151 51 -24 67 -26 181 -26
97 0 136 4 173 18 l47 19 0 130 c0 71 -3 128 -7 126 -57 -29 -97 -41 -145 -42
-47 -1 -61 3 -82 23 -14 14 -30 41 -36 60 -5 20 -10 150 -10 289 l0 252 140 0
140 0 0 130 0 130 -140 0 -140 0 0 165 0 165 -49 0 -48 0 -13 -62z"/>
<path d="M11448 9824 c-125 -30 -228 -105 -274 -201 -22 -44 -27 -69 -27 -127
0 -94 28 -159 97 -225 64 -60 123 -90 275 -143 136 -47 174 -68 190 -106 27
-66 -31 -112 -141 -112 -77 0 -145 29 -208 89 l-44 42 -83 -83 c-46 -45 -83
-88 -83 -94 0 -7 27 -37 60 -67 97 -90 207 -130 355 -131 140 0 268 46 349
127 61 61 80 107 84 205 4 74 1 88 -22 137 -31 62 -107 135 -181 173 -27 14
-98 42 -157 63 -185 64 -233 105 -193 165 9 14 37 35 63 46 84 37 187 10 278
-74 l43 -40 85 89 85 88 -45 45 c-121 124 -325 178 -506 134z"/>
<path d="M12588 9825 c-26 -7 -67 -24 -92 -38 l-46 -26 0 25 0 24 -145 0 -145
0 0 -800 0 -800 145 0 145 0 0 264 0 265 62 -32 c56 -29 71 -32 172 -35 93 -3
121 -1 175 18 271 91 430 392 366 694 -64 302 -371 515 -637 441z m189 -271
c107 -51 166 -159 167 -304 0 -72 -4 -94 -27 -145 -54 -117 -135 -175 -253
-183 -62 -4 -79 -1 -125 21 -97 46 -90 19 -87 318 l3 263 30 18 c88 51 200 56
292 12z"/>
<path d="M13823 9825 c-134 -29 -268 -117 -348 -229 -154 -216 -149 -495 12
-708 68 -90 195 -172 316 -204 69 -18 238 -18 310 1 202 53 371 219 422 415
24 93 16 271 -16 357 -102 275 -400 432 -696 368z m265 -276 c113 -56 176
-161 176 -294 0 -67 -4 -90 -27 -140 -34 -73 -85 -128 -152 -163 -69 -36 -179
-38 -247 -4 -65 32 -125 94 -156 160 -23 49 -27 70 -27 147 0 80 3 97 30 148
34 69 108 139 168 160 23 9 72 16 108 16 54 1 76 -4 127 -30z"/>
<path d="M10650 9250 l0 -560 145 0 145 0 0 560 0 560 -145 0 -145 0 0 -560z"/>
</g>
</svg>
